# xmcd
#
# Track frame offsets:
#	150
#	14987
#	37451
#	66226
#	86350
#	124390
#	136959
#	152311
#	168800
#	198973
#	216822
#
# Disc length: 3228 seconds
#
# Revision: 3
# Processed by: cddbd v1.4PL0 Copyright (c) Steve Scherf et al.
# Submitted via: MusicWizard 6.0.0
#
DISCID=9b0c9a0b
DTITLE=Shannon Mem - 2nd Blues Album
DYEAR=1997
DGENRE=Blues
TTITLE0=Wrong People On Charge
TTITLE1=Old Men
TTITLE2=Charity
TTITLE3=Say That Then (The Parlez-Vous Francais Song)
TTITLE4=One Thin Dime
TTITLE5=Mirror Mirror
TTITLE6=My Humble Opinion
TTITLE7=Down Broke
TTITLE8=Do You 'Yuh' What I Say
TTITLE9=Mr. Blues
TTITLE10=The Blues Is Back
EXTD=
EXTT0=
EXTT1=
EXTT2=
EXTT3=
EXTT4=
EXTT5=
EXTT6=
EXTT7=
EXTT8=
EXTT9=
EXTT10=
PLAYORDER=
